<svg xmlns="http://www.w3.org/2000/svg" width="199371.738" height="46167.405" viewBox="0 0 186.911 43.281942"><path d="M68.116 42.1h3.777v-.53h-3.198v-1.823h2.828v-.53h-2.828v-1.773h3.158v-.53h-3.737zm6.115.07c.76 0 1.36-.42 1.36-1.14v-.02c0-.692-.64-.922-1.23-1.093-.51-.16-.978-.3-.978-.66v-.02c0-.31.29-.552.74-.552.37 0 .77.14 1.128.37l.26-.43c-.39-.26-.91-.42-1.38-.42-.748 0-1.298.43-1.298 1.09v.02c0 .702.67.912 1.27 1.083.5.14.95.29.95.67v.01c0 .37-.33.612-.79.612-.45 0-.91-.18-1.32-.49l-.29.41c.43.35 1.03.56 1.58.56zm2.42 1.112h.57V41.37c.288.42.748.81 1.458.81.93 0 1.828-.74 1.828-1.993v-.01c0-1.26-.91-1.992-1.828-1.992-.7 0-1.15.4-1.46.85v-.77h-.57zm1.928-1.612c-.71 0-1.39-.59-1.39-1.483v-.01c0-.88.68-1.482 1.39-1.482.72 0 1.34.58 1.34 1.482v.02c0 .922-.6 1.472-1.34 1.472zm3.317-1.252h3.028c.01-.09.01-.15.01-.2 0-1.122-.65-2.033-1.78-2.033-1.058 0-1.837.89-1.837 2.002 0 1.192.86 2.003 1.908 2.003.72 0 1.19-.29 1.57-.72l-.35-.32c-.31.33-.68.54-1.21.54-.67 0-1.26-.46-1.34-1.272zm0-.46c.08-.742.58-1.293 1.24-1.293.75 0 1.148.6 1.218 1.292zm5.755 2.232c.72 0 1.17-.31 1.56-.74l-.36-.34c-.31.32-.68.57-1.17.57-.8 0-1.41-.66-1.41-1.493v-.01c0-.83.59-1.482 1.37-1.482.52 0 .86.26 1.16.57l.38-.4c-.36-.37-.81-.68-1.53-.68-1.12 0-1.958.92-1.958 2.002v.01c0 1.082.84 1.993 1.958 1.993zm2.508-4.757h.65v-.63h-.65zm.04 4.667h.57v-3.835h-.57zm3.028.08c.67 0 1.11-.31 1.38-.65v.57h.56v-2.343c0-.49-.132-.86-.4-1.122-.27-.28-.7-.42-1.24-.42-.56 0-.96.13-1.39.32l.17.47c.36-.17.71-.28 1.17-.28.71 0 1.13.36 1.13 1.042v.12c-.34-.1-.68-.17-1.17-.17-.97 0-1.64.43-1.64 1.252v.02c0 .78.71 1.19 1.43 1.19zm.11-.46c-.51 0-.96-.28-.96-.76v-.02c0-.452.41-.762 1.12-.762.46 0 .83.08 1.11.16v.35c0 .61-.56 1.032-1.27 1.032zm3.088.38h.57v-5.407h-.57zm1.898-4.667h.66v-.63h-.66zm.04 4.667h.57v-3.835h-.57zm1.67 0h3.316v-.48H100.8l2.548-2.985v-.37h-3.228v.49h2.448l-2.537 2.985zm5.464.08c.68 0 1.11-.31 1.38-.65v.57h.56v-2.343c0-.49-.13-.86-.4-1.122-.27-.28-.69-.42-1.23-.42-.56 0-.97.13-1.39.32l.17.47c.35-.17.71-.28 1.16-.28.72 0 1.13.36 1.13 1.042v.12c-.34-.1-.68-.17-1.17-.17-.97 0-1.63.43-1.63 1.252v.02c0 .78.71 1.19 1.42 1.19zm.12-.46c-.52 0-.97-.28-.97-.76v-.02c0-.452.41-.762 1.12-.762.47 0 .84.08 1.12.16v.35c0 .61-.57 1.032-1.27 1.032zm4.367 1.522l.49-1.06c.65-.032 1.088-.332 1.448-.733l-.36-.34c-.298.32-.678.57-1.168.57-.8 0-1.4-.66-1.4-1.493v-.01c0-.83.59-1.482 1.36-1.482.52 0 .86.26 1.16.57l.38-.4c-.35-.37-.8-.68-1.53-.68-1.12 0-1.958.92-1.958 2.002v.01c0 .962.67 1.793 1.61 1.953l-.58.842zm4.016-1.06c.67 0 1.108-.312 1.368-.653v.57h.57v-2.343c0-.49-.14-.86-.4-1.122-.28-.28-.7-.42-1.24-.42-.558 0-.968.13-1.388.32l.17.47c.36-.17.71-.28 1.16-.28.718 0 1.128.36 1.128 1.042v.12c-.34-.1-.68-.17-1.16-.17-.968 0-1.637.43-1.637 1.252v.02c0 .78.71 1.19 1.43 1.19zm.11-.462c-.52 0-.96-.28-.96-.76v-.02c0-.452.41-.762 1.12-.762.46 0 .828.08 1.108.16v.35c0 .61-.57 1.032-1.27 1.032zm-.58-3.966c.11-.26.19-.36.38-.36.25 0 .66.3.99.3.358 0 .558-.22.698-.78l-.34-.09c-.11.26-.2.36-.39.36-.25 0-.66-.3-.988-.3-.35 0-.55.22-.7.78zm5.355 4.436c1.15 0 2-.92 2-2.003v-.01c0-1.08-.84-1.992-1.99-1.992s-1.988.92-1.988 2.002v.01c0 1.082.83 1.993 1.978 1.993zm.01-.51c-.8 0-1.408-.67-1.408-1.493v-.01c0-.81.57-1.482 1.398-1.482.8 0 1.42.67 1.42 1.492v.01c0 .812-.58 1.482-1.41 1.482zm5.576-1.262h3.028c.01-.09.01-.15.01-.2 0-1.122-.65-2.033-1.788-2.033-1.05 0-1.83.89-1.83 2.002 0 1.192.86 2.003 1.91 2.003.72 0 1.19-.29 1.57-.72l-.35-.32c-.31.33-.68.54-1.21.54-.67 0-1.26-.46-1.34-1.272zm0-.46c.08-.742.58-1.293 1.24-1.293.75 0 1.15.6 1.22 1.292zm4.038 2.142h.56v-2.183c0-.71.46-1.21 1.068-1.21.61 0 .98.42.98 1.14V42.1h.57v-2.213c0-.75.48-1.18 1.048-1.18.62 0 .99.42.99 1.15V42.1h.57v-2.373c0-.94-.54-1.542-1.42-1.542-.66 0-1.07.34-1.34.77-.21-.43-.608-.77-1.228-.77-.64 0-.98.35-1.24.73v-.65h-.558zm10.78.04h.49l1.43-4.216 1.418 4.216h.49l1.85-5.227h-.61l-1.48 4.316-1.42-4.327h-.478l-1.42 4.326-1.478-4.317h-.64zm6.496-1.722h3.028c.01-.09.01-.15.01-.2 0-1.122-.65-2.033-1.78-2.033-1.058 0-1.827.89-1.827 2.002 0 1.192.85 2.003 1.898 2.003.73 0 1.19-.29 1.58-.72l-.36-.32c-.31.33-.68.54-1.2.54-.67 0-1.27-.46-1.35-1.272zm0-.46c.08-.742.59-1.293 1.24-1.293.758 0 1.158.6 1.218 1.292zm6.065 2.223c.928 0 1.828-.74 1.828-1.993v-.01c0-1.26-.91-1.992-1.83-1.992-.698 0-1.148.4-1.458.85v-2.342h-.57V42.1h.57v-.73c.3.42.75.81 1.46.81zm-.1-.51c-.71 0-1.38-.59-1.38-1.483v-.01c0-.88.67-1.482 1.38-1.482.72 0 1.348.58 1.348 1.482v.02c0 .922-.61 1.473-1.35 1.473zm5.535-1.252h3.027c.01-.09.01-.15.01-.2 0-1.122-.65-2.033-1.778-2.033-1.06 0-1.84.89-1.84 2.002 0 1.192.86 2.003 1.91 2.003.72 0 1.19-.29 1.58-.72l-.36-.32c-.31.33-.68.54-1.21.54-.67 0-1.26-.46-1.34-1.272zm0-.46c.08-.742.58-1.293 1.24-1.293.758 0 1.148.6 1.218 1.292zm6.345 2.142h.57v-4.196l1.888 2.774h.03l1.878-2.774V42.1h.59v-5.187h-.6l-1.878 2.834-1.89-2.834h-.588zm8.063.09c1.15 0 2-.92 2-2.003v-.01c0-1.08-.84-1.992-1.99-1.992s-1.988.92-1.988 2.002v.01c0 1.082.83 1.993 1.978 1.993zm.01-.51c-.8 0-1.41-.67-1.41-1.493v-.01c0-.81.57-1.482 1.4-1.482.81 0 1.42.67 1.42 1.492v.01c0 .812-.58 1.482-1.41 1.482zm5.046.5c.93 0 1.828-.74 1.828-1.993v-.01c0-1.26-.91-1.992-1.83-1.992-.698 0-1.148.4-1.458.85v-2.342h-.57V42.1h.57v-.73c.3.42.75.81 1.46.81zm-.1-.51c-.71 0-1.38-.59-1.38-1.483v-.01c0-.88.67-1.482 1.38-1.482.73 0 1.348.58 1.348 1.482v.02c0 .922-.61 1.473-1.35 1.473zm2.997-4.236h.65v-.63h-.65zm.03 4.666h.57v-3.835h-.57zm1.948 0h.57v-5.407h-.57zm2.23-1.682h3.026c.01-.09.01-.15.01-.2 0-1.122-.648-2.033-1.777-2.033-1.06 0-1.84.89-1.84 2.002 0 1.192.86 2.003 1.91 2.003.73 0 1.19-.29 1.578-.72l-.358-.32c-.31.33-.68.54-1.2.54-.68 0-1.268-.46-1.348-1.272zm0-.46c.078-.742.588-1.293 1.237-1.293.76 0 1.16.6 1.22 1.292zM64.43 4.096C61.64-2.664 45.043-.87 27.37 8.102 9.682 17.065-2.388 29.802.4 36.552c1.24 3.005 5.206 4.316 10.782 4.056-4.097-.15-6.995-1.412-8.004-3.845-2.598-6.29 8.353-17.996 24.46-26.168C43.746 2.435 58.903.912 61.5 7.19c1.23 3.716-.05 7.58-5.854 13.04C63.93 14.16 66.198 8.36 64.43 4.095z" fill="#1f82c3"/><path d="M50.89 20.36H31.425v-9.715H50.89z" fill="#ea9423"/><path d="M29.337 28.96H23.91v-8.6h5.427z" fill="#719950"/><path d="M22.732 36.342h-6.854v-5.518h6.854z" fill="#84c3ec"/><path d="M40.148 33.067h-8.723V22.402h8.723z" fill="#cf3736"/><path d="M68.096 31.445h15.558V27.44H72.562v-4.307h9.633v-4.006h-9.633v-4.155h10.952v-4.006H68.096zm25.13.29c1.11 0 2.118-.14 3.037-.42.91-.27 1.71-.68 2.37-1.222.668-.54 1.188-1.212 1.547-2.003.36-.78.55-1.682.55-2.704v-.06c0-.88-.14-1.652-.43-2.313-.28-.65-.7-1.212-1.25-1.682-.558-.48-1.228-.89-2.037-1.23-.8-.342-1.73-.642-2.758-.912-.88-.23-1.608-.43-2.178-.62-.58-.182-1.03-.372-1.35-.562-.33-.2-.56-.41-.698-.65-.13-.24-.19-.532-.18-.862v-.06c0-.33.098-.64.288-.902.2-.27.5-.48.89-.64.39-.16.87-.24 1.438-.24.87 0 1.74.18 2.63.53.888.36 1.787.85 2.686 1.492l2.338-3.395c-1.04-.842-2.188-1.483-3.457-1.934-1.27-.45-2.648-.67-4.136-.67-1.04 0-2.01.15-2.878.44-.87.29-1.63.7-2.26 1.252-.64.54-1.128 1.192-1.478 1.943-.36.762-.53 1.603-.54 2.534v.06c.01 1.012.17 1.853.49 2.544.31.69.77 1.262 1.36 1.712.588.46 1.308.842 2.137 1.152.828.31 1.758.59 2.787.85.85.222 1.55.422 2.088.612.54.2.96.39 1.25.59.3.2.51.412.62.642.11.23.17.48.158.76v.06c0 .602-.27 1.083-.78 1.413-.52.34-1.238.51-2.167.52-.78 0-1.51-.1-2.208-.31-.7-.2-1.37-.49-2.01-.862-.648-.37-1.268-.8-1.877-1.322l-2.657 3.195c.82.732 1.7 1.343 2.648 1.823.95.49 1.92.852 2.938 1.092 1.02.24 2.05.36 3.078.36zm9.722-.29h4.497v-6.15h3.417c1.15 0 2.228-.15 3.227-.45 1-.31 1.868-.76 2.617-1.37.76-.602 1.35-1.353 1.77-2.245.418-.9.638-1.942.648-3.124v-.06c0-1.052-.18-2.013-.54-2.874-.35-.86-.87-1.612-1.548-2.233-.67-.632-1.5-1.123-2.458-1.463-.96-.34-2.06-.51-3.28-.51h-8.352zm4.497-10.154v-6.258h3.477c.75 0 1.4.12 1.948.35.54.24.96.59 1.25 1.052.3.45.45 1.02.45 1.702v.05c0 .59-.14 1.122-.42 1.592-.29.46-.69.832-1.22 1.102-.53.27-1.17.41-1.918.41zm18.565 10.305h3.917l4.606-13.41 4.616 13.41h3.916l6.974-20.63h-4.706l-4.227 13.87-4.586-13.93h-3.856l-4.576 13.93-4.236-13.87h-4.817zm25.66-.15h15.567V27.44h-11.1v-4.307h9.64v-4.006h-9.64v-4.155h10.95v-4.006H151.67zm17.865 0h9.722c1.16 0 2.208-.12 3.147-.35.93-.23 1.74-.59 2.41-1.052.678-.47 1.188-1.05 1.547-1.763.36-.7.54-1.522.55-2.453v-.06c-.01-.91-.16-1.682-.47-2.323-.308-.64-.738-1.172-1.308-1.613-.57-.43-1.26-.8-2.048-1.09.49-.27.95-.6 1.35-1.002.4-.39.718-.87.968-1.432.24-.56.36-1.22.37-1.993v-.05c0-.71-.12-1.342-.35-1.922-.24-.57-.59-1.09-1.05-1.562-.59-.59-1.338-1.04-2.237-1.34-.9-.322-1.94-.472-3.108-.472h-9.492zm4.386-12.197V14.91h4.438c.95.01 1.678.192 2.178.552.51.36.76.882.77 1.562v.05c-.01.51-.14.922-.4 1.242-.26.32-.64.55-1.12.7-.48.152-1.06.232-1.728.232zm0 8.252v-4.507h5.197c1.15 0 1.99.2 2.528.59.54.39.8.942.8 1.633v.05c0 .51-.13.932-.39 1.262-.25.32-.62.57-1.09.73-.47.16-1.038.242-1.708.242z" fill="#1f82c3"/></svg>